<svg id="Layer_1" data-name="Layer 1" xmlns="http://www.w3.org/2000/svg" viewBox="0 0 1886.1 427.1"><defs><style>.cls-1{fill:#009640;}.cls-2{fill:#dbe283;}.cls-3{fill:#afcb07;}.cls-4{fill:#57a431;}.cls-5{fill:#007b3d;}</style></defs><title>Gagalon_szarfa (11)</title><path class="cls-1" d="M1369.84,333.88c16.36,1.87,32.75,3.48,49,5.78,22.69,3.21,45.39,6.52,67.94,10.58,28.29,5.11,56.57,10.44,84.62,16.76q40.68,9.17,80.85,20.64,66.81,19.16,133.19,39.84c31.43,9.79,62.5,20.74,93.72,31.19,1.85.62,3.63,1.44,5.7,2.27-2.69,4.67-5.42,5.94-10.46,4.33-27.26-8.68-54.58-17.22-82-25.26-36.13-10.57-72.27-21.14-108.67-30.73-28-7.38-56.31-13.54-84.61-19.67-19-4.11-38.2-7.42-57.37-10.75-17.61-3.06-35.26-5.94-53-8.4-14.59-2-29.27-3.35-43.92-4.94-14.81-1.61-29.61-3.39-44.45-4.68q-21.59-1.87-43.27-2.89c-18.94-.88-37.9-1.93-56.84-1.85-28.87.11-57.74,1-86.6,1.82-15,.4-29.89,1.21-44.84,1.91-5.07.23-10.15.61-15.21,1.07-12.94,1.19-25.87,2.47-38.81,3.7-7.73.74-15.48,1.35-23.21,2.21-9.75,1.08-19.48,2.38-29.22,3.54-11.64,1.39-23.31,2.59-34.93,4.12-15.37,2-30.71,4.29-46.07,6.45-10.5,1.48-21,2.94-31.5,4.44-11.91,1.7-23.81,3.46-35.72,5.16-12.23,1.74-24.47,3.43-36.69,5.16-12.7,1.79-25.38,3.67-38.08,5.38-13,1.76-26.09,3.33-39.12,5-16.49,2.14-32.95,4.5-49.46,6.45-13.22,1.56-26.5,2.63-39.76,3.95-18.77,1.88-37.52,4-56.31,5.64-14.08,1.25-28.2,2.11-42.32,2.91-14.3.8-28.61,1.85-42.92,1.85-35,0-70-.5-105-.89-5.88-.07-11.76-.5-17.61-1-13.9-1.18-27.78-2.48-41.67-3.77-10.25-1-20.53-1.72-30.75-3-12.69-1.62-25.34-3.63-38-5.62-14.52-2.28-29.07-4.42-43.5-7.16-16-3-31.94-6.29-47.74-10.14-30.4-7.41-60.76-15-91-23.09C136,367.32,117.91,361.57,99.78,356c-25.21-7.73-50.36-15.65-74.4-23.14V263c2.48.74,3.7,1.07,4.9,1.48,18.11,6.19,36.16,12.61,54.36,18.55,24.5,8,49,16.09,73.74,23.28,29.15,8.47,58.5,16.32,87.89,23.9a1029.6,1029.6,0,0,0,116.34,22.92c24.46,3.39,48.94,6.67,73.47,9.42,16.4,1.84,32.89,2.95,49.37,3.88,17.49,1,35,1.83,52.52,1.9,25.39.11,50.78-.37,76.17-.9,17-.36,34.06-1.09,51.08-1.9,16.18-.78,32.36-1.77,48.53-2.87,16.94-1.14,33.88-2.46,50.8-3.83,14.54-1.17,29.07-2.47,43.6-3.82q25.1-2.31,50.18-4.8,23.89-2.34,47.78-4.79c15.61-1.58,31.21-3.23,46.82-4.77q25.1-2.49,50.19-4.82c15-1.37,30-2.69,45.05-3.83q27.8-2.1,55.61-3.84c13.34-.82,26.69-1.42,40-1.92,12.59-.47,25.19-1,37.78-.93,21.23.07,42.46.52,63.69.91q15.06.28,30.1,1c12.23.53,24.46,1.14,36.67,1.93,12.83.82,25.64,1.89,38.91,2.85C1357.56,332.59,1363.71,333.17,1369.84,333.88Z" transform="translate(-23.26 -50.36)"/><path class="cls-2" d="M1909.36,431.2c-1.49,1.69-2.69,2.6-3.3,3.8-2.46,4.9-5.48,5.81-10.88,3.69q-48.29-18.88-96.88-37c-33.81-12.59-67.57-25.37-101.73-36.94-41.64-14.11-83.61-27.24-125.57-40.38-18.17-5.68-36.58-10.61-55-15.35-23.45-6-47-11.67-70.57-17.15-14.14-3.28-28.4-6.1-42.66-8.79-16.37-3.1-32.78-5.94-49.21-8.7-17.83-3-35.67-6-53.57-8.55-16-2.27-32-4-48-5.8q-20.16-2.21-40.37-3.84-20.52-1.7-41.08-2.88c-13.76-.81-27.54-1.41-41.31-1.93-11.76-.45-23.53-1-35.29-.93-34.8.15-69.61.53-104.41.92-15.44.18-30.89.59-46.33.95-11.61.27-23.21.63-34.82,1q-17.16.48-34.33,1c-10.65.31-21.29.66-31.94,1q-18.84.51-37.69,1c-15,.35-29.94,1-44.9.91q-64.2-.22-128.4-.93c-12.08-.11-24.16-.6-36.25-.93-11.44-.31-22.88-.59-34.32-1-5.85-.2-11.7-.49-17.53-1-14.28-1.19-28.55-2.55-42.83-3.79-8.17-.7-16.38-1-24.52-2-14.32-1.71-28.59-3.77-42.88-5.7-11.79-1.59-23.64-2.84-35.36-4.9-18.1-3.19-36.19-6.57-54.14-10.53-27.3-6-54.52-12.5-81.7-19-40-9.63-79.11-22.26-117.93-35.71-27.51-9.52-54.7-20-82-30.15-11.28-4.21-22.44-8.74-32.91-12.83V50.36C34.13,52.8,38.81,54.79,43.4,57,57,63.45,70.47,70.28,84.21,76.47c20.83,9.38,41.65,18.85,62.84,27.36,29.86,12,59.89,23.65,90.18,34.52,21.09,7.56,42.59,14.13,64.19,20.13,27,7.51,54.21,14.71,81.61,20.71,30.08,6.6,60.44,11.91,90.76,17.34,17,3,34.08,5.43,51.18,7.67,14.78,2,29.63,3.5,44.48,4.82,17.28,1.53,34.6,2.75,51.91,3.86,13.28.85,26.58,1.42,39.88,1.93,11.92.46,23.85,1,35.78.94,60.56-.21,121.11-.7,181.67-.88q81.36-.23,162.71,0c7.6,0,15.21.65,22.81.91,19.37.67,38.74,1.19,58.11,2,10.26.41,20.5,1.23,30.75,1.88,15.13,1,30.27,1.87,45.4,2.9,7.53.52,15.07,1.12,22.58,1.94,10.42,1.14,20.82,2.58,31.24,3.78,9.2,1.06,18.44,1.74,27.61,3,12.52,1.7,25,3.8,37.48,5.67,13.11,2,26.28,3.62,39.35,5.87,15,2.58,29.94,5.52,44.86,8.57,17.53,3.58,35.05,7.22,52.49,11.25,18.64,4.31,37.26,8.79,55.73,13.77,20,5.37,39.72,11.42,60,17.18C1687,329.64,1798.41,379.11,1909.36,431.2Z" transform="translate(-23.26 -50.36)"/><path class="cls-3" d="M1249.5,262.88c14.49,1.78,29,3.82,43.43,5.71,12.63,1.64,25.33,2.91,37.91,4.9q27.4,4.36,54.68,9.57c21.08,4,42.17,8,63.08,12.79,23.92,5.47,47.78,11.33,71.42,17.9,35.22,9.79,70.48,19.55,105.24,30.78,43.54,14.08,86.64,29.54,129.85,44.6,15.92,5.55,31.65,11.6,47.43,17.54q30.66,11.55,61.26,23.31c11.48,4.41,22.87,9,34.32,13.6-3.24,7-3.5,6.63-9,4.57-12-4.5-23.91-9.11-36-13.37-33.89-12-67.7-24.22-101.81-35.55-38-12.64-76.32-24.61-114.63-36.44-19.31-6-38.84-11.26-58.4-16.37q-32.77-8.55-65.78-16.18c-16.82-3.91-33.71-7.56-50.7-10.64-23.35-4.24-46.79-8-70.24-11.66-17.4-2.75-34.83-5.33-52.31-7.59-14.86-1.91-29.78-3.44-44.7-4.8-16.52-1.51-33.07-2.73-49.61-3.87-12-.83-24-1.44-36.08-1.92s-23.87-1-35.8-.94q-39.49.18-79,.95c-19.07.38-38.13,1.16-57.19,1.9-13,.5-26,1.2-39,1.91q-24.66,1.35-49.32,2.87c-14.52.9-29,1.92-43.55,2.88s-29,1.93-43.56,2.87q-23,1.47-45.95,2.88-16.37,1-32.72,1.91c-12.19.68-24.37,1.36-36.56,1.91q-23.8,1.08-47.6,1.92c-11.61.42-23.23,1-34.84.92-33.54-.15-67.07-.53-100.61-.93-9.7-.12-19.4-.46-29.09-1-16-.84-31.95-1.72-47.91-2.89-14-1-28-2.35-41.95-3.83-16.43-1.75-32.88-3.42-49.21-5.85-18.28-2.72-36.49-6-54.62-9.51-25-4.89-50.17-9.32-74.81-15.71-37.29-9.66-74.53-19.81-111.18-31.64-41.86-13.51-83-29.16-124.59-43.64-3.15-1.1-2.9-2.84-2.86-5q.45-29,1-57.88a8.32,8.32,0,0,1,.35-1.55c1.54.49,3,.88,4.47,1.41,35.52,13.28,70.92,26.89,106.58,39.75,20.45,7.37,41.26,13.73,62,20.18,16.43,5.1,32.94,10,49.59,14.35q34.1,8.88,68.47,16.67c19.72,4.46,39.54,8.58,59.46,12.07,19.66,3.45,39.49,6,59.27,8.78,14.65,2.06,29.33,4.07,44,5.69,14.29,1.57,28.63,2.79,43,3.86q23.47,1.74,47,2.89c16.35.81,32.71,1.52,49.08,1.91q33.25.78,66.52.95c7.77.05,15.54-.74,23.31-.87,24.73-.4,49.46-.62,74.19-1,13.53-.21,27.06-.6,40.59-.94q17.42-.45,34.83-1l32.43-1,33.88-1c12.41-.33,24.82-.71,37.23-.94,20.25-.38,40.5-.89,60.75-.91,17.21,0,34.43.58,51.64.89,19.13.33,38.26.59,57.39,1,10,.2,20,.57,30,.95,5.86.23,11.72.54,17.56,1,15.25,1.21,30.5,2.52,46.19,3.79C1235.38,261.56,1242.46,262,1249.5,262.88Z" transform="translate(-23.26 -50.36)"/><path class="cls-4" d="M228.07,322.3c-35.94-10.05-71.91-20.09-107.56-31.12-30.25-9.37-60.09-20.08-90.06-30.36-1.72-.59-4.17-2.67-4.19-4.08-.28-19-.19-37.9-.19-57.46,2.77.75,4.15,1,5.45,1.5,23.39,8.52,46.63,17.49,70.19,25.51,28.05,9.56,56.21,18.89,84.64,27.26q45.14,13.29,90.9,24.47c22.8,5.62,45.94,9.92,69,14.48q19.74,3.9,39.68,6.73c15.81,2.25,31.68,4,47.54,5.9,13.82,1.64,27.64,3.37,41.49,4.68,12.95,1.23,25.93,2.15,38.92,2.89,14.77.84,29.55,1.68,44.34,1.9q33,.48,65.94,0c30.14-.4,60.28-1.12,90.41-1.9,14.46-.38,28.92-1.17,43.38-1.89q26.65-1.33,53.3-2.88c15-.88,30.1-1.89,45.15-2.86q22.08-1.43,44.17-2.89c14.55-.95,29.1-1.94,43.65-2.86q23.74-1.5,47.5-2.88c12.2-.71,24.41-1.38,36.62-1.92,16.22-.72,32.43-1.42,48.65-1.9s32.54-.89,48.81-.93c12.59,0,25.18.54,37.77.9,21.49.61,43,1.18,64.49,1.94,13.34.47,26.68,1.22,40,1.92q6.42.33,12.8,1,21.95,2.31,43.87,4.73c11.94,1.29,23.94,2.25,35.83,4,19.82,2.88,39.62,5.95,59.33,9.49,29,5.22,58.07,10.22,86.82,16.62q45.19,10.06,89.79,22.72c40.32,11.43,80.54,23.31,120.38,36.3,41.82,13.64,83.15,28.77,124.66,43.33,16.6,5.82,33.13,11.85,50.11,17.94l-4.06,5.15a18,18,0,0,1-1.83-.4c-56.41-18.29-112.63-37.19-169.29-54.68-36.62-11.3-73.79-20.83-110.86-30.62-21-5.56-42.25-10.74-63.61-14.86-33.34-6.42-66.82-12.08-100.33-17.49-21.22-3.42-42.57-6.08-63.92-8.58-17.31-2-34.69-3.48-52.06-4.83q-23.75-1.84-47.56-2.88c-14.65-.63-29.34-1-44-1q-39.53.12-79.05.95c-15.59.31-31.16,1.23-46.74,1.86-8.43.34-16.86.6-25.29,1-5.07.23-10.14.58-15.2,1q-22.72,1.84-45.43,3.78c-7.89.66-15.78,1.27-23.66,2-12.58,1.19-25.14,2.51-37.72,3.73-7.4.73-14.82,1.31-22.21,2.09-11,1.16-22,2.53-32.93,3.65-7.88.81-15.79,1.24-23.66,2.06C868.08,346,854,347.8,839.79,349.2c-11.83,1.17-23.71,1.89-35.55,3-16.24,1.49-32.46,3.24-48.7,4.7q-18.48,1.67-37,2.88-23.53,1.61-47.08,2.89c-14.3.77-28.6,1.46-42.91,1.91-15.94.49-31.9.94-47.85.93-18.19,0-36.37-.53-54.56-.91q-17.44-.36-34.88-1c-5.88-.2-11.75-.48-17.6-1-16.55-1.49-33.08-3.12-49.61-4.72-9.77-.95-19.55-1.71-29.27-3-12.34-1.64-24.64-3.64-36.94-5.65-14.45-2.36-28.9-4.78-43.32-7.4-12.09-2.19-24.12-4.7-36.56-7.22C261.08,330.43,244.43,326.87,228.07,322.3Z" transform="translate(-23.26 -50.36)"/><path class="cls-5" d="M24.6,336.41a41.18,41.18,0,0,1,4.37.87c15.12,4.8,30.21,9.73,45.36,14.46,20,6.24,39.85,13,60.07,18.33,42.46,11.22,85,22.07,127.73,32.26,20.95,5,42.27,8.53,63.53,12,17.35,2.86,34.86,4.85,52.33,6.94,17.32,2.08,34.66,4.1,52,5.59,16,1.37,32.05,2.17,48.1,2.92,12.58.58,25.19,1,37.79.95,21.07-.07,42.15-.57,63.22-.89.48,0,1,0,1.44,0,16-.95,32.06-1.87,48.09-2.85,10.32-.62,20.64-1.1,30.93-2,15.64-1.39,31.26-3.12,46.88-4.68,13.26-1.32,26.55-2.47,39.79-4,15.28-1.73,30.53-3.74,45.78-5.66,10.55-1.32,21.09-2.62,31.62-4.05,13-1.78,26.05-3.68,39.07-5.53q18.13-2.58,36.27-5.17,21.88-3.15,43.77-6.35c12.39-1.79,24.78-3.64,37.18-5.38,14.92-2.09,29.84-4.21,44.79-6.1,14.32-1.8,28.68-3.33,43-5,19.55-2.21,39.08-4.57,58.65-6.53,15.48-1.56,31-2.89,46.54-3.82,20.66-1.24,41.35-2.83,62-2.8,42.15.07,84.3,1,126.45,1.81,11.92.23,23.85,1,35.74,2,15.32,1.29,30.61,3.05,45.9,4.69,14.67,1.57,29.38,2.85,44,5,23.66,3.46,47.33,7,70.82,11.46q45.27,8.64,90.22,18.95c23.8,5.46,47.41,11.83,70.94,18.38,29.48,8.22,58.82,16.95,88.18,25.61,16.43,4.84,32.79,9.93,49.15,15,6.88,2.13,13.67,4.54,20.61,6.86-5.16,8.83-5.49,8.91-14.5,6.16-8.49-2.59-17-5.15-25.54-7.53-29.63-8.27-59.16-16.9-88.94-24.56-29.94-7.7-60.06-14.76-90.25-21.44-20.73-4.59-41.68-8.25-62.6-11.93-17.48-3.08-35-5.89-52.61-8.25s-35-4.08-52.49-5.9c-19.41-2-38.83-4-58.28-5.65-15.37-1.29-30.78-2.18-46.19-2.9-18.46-.86-36.94-1.83-55.42-1.87-31.48-.08-63,.48-94.42.89-7.32.09-14.65.48-22,1-16.16,1.16-32.31,2.46-48.45,3.76-11.87.95-23.76,1.8-35.6,3-12.61,1.32-25.19,3-37.77,4.63-13.22,1.66-26.45,3.2-39.64,5.11-15.68,2.27-31.33,4.83-47,7.36-18.78,3-37.56,6.07-56.32,9.25-18.92,3.22-37.79,6.73-56.71,9.92-22.06,3.72-44.14,7.26-66.21,10.85-17.22,2.81-34.42,5.78-51.67,8.3-17.43,2.55-34.91,4.68-52.38,6.92-15.11,1.93-30.2,3.95-45.34,5.58-11.84,1.28-23.74,2-35.62,3-14.87,1.25-29.74,2.69-44.63,3.72-12.86.9-25.74,1.43-38.62,1.94-11.8.46-23.6,1-35.4.94q-40.48-.18-81-.95c-17.51-.35-35-1.06-52.53-1.91-15.08-.72-30.15-1.72-45.2-2.87-13.76-1.06-27.52-2.23-41.23-3.83-19.83-2.31-39.69-4.53-59.38-7.75C220.29,451,197.52,446.83,175,441.8c-45.76-10.21-90.31-24.53-133.84-41.93-6.11-2.44-11.88-5.73-17.86-9C23.68,372.49,24.13,354.54,24.6,336.41Z" transform="translate(-23.26 -50.36)"/></svg>