<svg version="1.1" id="Layer_1" xmlns="http://www.w3.org/2000/svg" xmlns:xlink="http://www.w3.org/1999/xlink" x="0px" y="0px"
	 width="100%" viewBox="0 0 2000 518" enable-background="new 0 0 2000 518" xml:space="preserve">
<path fill="#000000" opacity="1.000000" stroke="none" 
	d="
M605.419189,334.999390 
	C599.021912,335.661346 592.617920,336.264343 586.228699,336.996674 
	C569.195374,338.949097 552.121277,340.623993 535.150269,343.023712 
	C511.513214,346.366058 487.872375,349.808685 464.384125,354.045380 
	C434.908875,359.361969 405.448517,364.914001 376.237335,371.498352 
	C347.981293,377.867462 319.861572,385.019501 292.017822,392.999573 
	C245.614410,406.298859 199.359512,420.149658 153.271271,434.504089 
	C120.532677,444.700714 88.169144,456.101929 55.646107,466.989105 
	C53.720993,467.633545 51.866535,468.489014 49.714405,469.352509 
	C52.516972,474.219116 55.358250,475.541290 60.607323,473.868774 
	C89.004524,464.820526 117.458183,455.924530 146.061890,447.555359 
	C183.699707,436.542908 221.352692,425.528717 259.268524,415.537445 
	C288.420502,407.855530 317.921021,401.440765 347.395203,395.056549 
	C367.198364,390.767181 387.193268,387.325684 407.163147,383.854370 
	C425.506836,380.665710 443.893341,377.667511 462.333069,375.104218 
	C477.531097,372.991608 492.832001,371.613220 508.092285,369.955627 
	C523.518066,368.280060 538.929810,366.429352 554.384949,365.083832 
	C569.384277,363.778046 584.419800,362.774353 599.459717,362.075684 
	C619.187683,361.159302 638.938049,360.061768 658.674316,360.142120 
	C688.743896,360.264526 718.812561,361.223694 748.875916,362.038605 
	C764.451599,362.460815 780.016785,363.300598 795.583130,364.027802 
	C800.871094,364.274841 806.156616,364.663177 811.428589,365.146790 
	C824.908081,366.383331 838.378906,367.714569 851.854126,368.998413 
	C859.913574,369.766266 867.986877,370.407745 876.032227,371.301331 
	C886.190674,372.429596 896.323792,373.783417 906.473633,374.991547 
	C918.599731,376.434814 930.750793,377.682831 942.856628,379.276550 
	C958.871643,381.384918 974.853210,383.747009 990.849243,385.999115 
	C1001.787231,387.539093 1012.728088,389.058563 1023.662781,390.621643 
	C1036.068848,392.395142 1048.466309,394.227661 1060.872925,395.996521 
	C1073.609375,397.812378 1086.353394,399.575104 1099.092407,401.374268 
	C1112.314697,403.241760 1125.525024,405.198517 1138.758789,406.980774 
	C1152.330444,408.808594 1165.927368,410.447388 1179.507324,412.214447 
	C1196.679443,414.448883 1213.825073,416.904114 1231.020874,418.934845 
	C1244.797119,420.561646 1258.633545,421.673859 1272.439087,423.056152 
	C1291.992676,425.013947 1311.526489,427.191742 1331.099243,428.930023 
	C1345.765991,430.232635 1360.473267,431.125000 1375.176392,431.953369 
	C1390.072876,432.792664 1404.986450,433.885986 1419.892456,433.887421 
	C1456.340088,433.890900 1492.788330,433.368835 1529.234985,432.954041 
	C1535.354492,432.884399 1541.479858,432.432343 1547.582031,431.914978 
	C1562.055420,430.687927 1576.518433,429.338531 1590.981689,427.994324 
	C1601.664429,427.001495 1612.374023,426.199310 1623.011353,424.841003 
	C1636.234741,423.152435 1649.409180,421.060394 1662.581177,418.992889 
	C1677.703857,416.619171 1692.859131,414.388733 1707.893188,411.532898 
	C1724.539185,408.370880 1741.162231,404.974152 1757.620850,400.964081 
	C1789.288086,393.248444 1820.906494,385.305878 1852.400391,376.914337 
	C1871.482178,371.829987 1890.328979,365.845154 1909.216064,360.052368 
	C1935.471558,351.999695 1961.666138,343.747925 1986.713257,335.946869 
	C1986.713257,311.274567 1986.713257,287.479126 1986.713257,263.164856 
	C1984.127441,263.941345 1982.853394,264.278717 1981.609375,264.704254 
	C1962.739014,271.158752 1943.945679,277.848480 1924.987549,284.033447 
	C1899.459473,292.361847 1873.947266,300.792175 1848.168213,308.283722 
	C1817.802246,317.108185 1787.237427,325.282318 1756.615112,333.181366 
	C1716.697021,343.478271 1676.272705,351.407135 1635.430420,357.055237 
	C1609.953003,360.578491 1584.452637,363.995728 1558.895752,366.863953 
	C1541.818115,368.780548 1524.639160,369.939606 1507.475586,370.905853 
	C1489.257324,371.931427 1471.005493,372.808441 1452.764648,372.885925 
	C1426.317627,372.998322 1399.864014,372.495605 1373.419556,371.945496 
	C1355.678833,371.576477 1337.942627,370.813171 1320.216919,369.964722 
	C1303.354736,369.157532 1286.501465,368.122803 1269.658081,366.982239 
	C1252.010742,365.787231 1234.374023,364.418060 1216.743408,362.992798 
	C1201.596680,361.768341 1186.459961,360.411530 1171.328003,359.014740 
	C1153.899780,357.405945 1136.479004,355.717865 1119.060181,354.010742 
	C1102.466064,352.384460 1085.877441,350.701141 1069.288696,349.021179 
	C1053.029053,347.374512 1036.776245,345.659515 1020.513123,344.049591 
	C1003.092224,342.325073 985.668579,340.622253 968.235046,339.032562 
	C952.601196,337.607025 936.960999,336.231140 921.307556,335.045441 
	C902.006958,333.583466 882.696411,332.230774 863.377319,331.040649 
	C849.483948,330.184784 835.573608,329.558746 821.663086,329.039795 
	C808.550110,328.550629 795.425842,328.023773 782.308472,328.069855 
	C760.191223,328.147583 738.074524,328.611145 715.959595,329.021271 
	C705.506470,329.215149 695.053650,329.559845 684.608704,330.018219 
	C671.869202,330.577301 659.130554,331.210938 646.405396,332.027374 
	C633.044800,332.884552 619.700623,333.996216 605.419189,334.999390 
M377.563599,294.999847 
	C255.840393,332.587860 139.805389,384.114899 24.233709,438.377167 
	C25.789415,440.132751 27.038765,441.079834 27.670938,442.337158 
	C30.233265,447.433502 33.377335,448.383118 39.002571,446.182068 
	C72.540665,433.059326 106.174652,420.171814 139.924133,407.601837 
	C175.139175,394.486023 210.302399,381.172577 245.886093,369.120056 
	C289.262146,354.428192 332.985535,340.745392 376.695953,327.064789 
	C395.615936,321.143127 414.799500,316.007874 434.006775,311.073944 
	C458.429321,304.800293 482.955444,298.912262 507.518768,293.210602 
	C522.247559,289.791718 537.097046,286.858368 551.956665,284.046967 
	C569.001892,280.822083 586.099792,277.862671 603.208923,274.991394 
	C621.786255,271.873779 640.366272,268.732819 659.013306,266.081299 
	C675.647827,263.715973 692.360901,261.872772 709.066223,260.045105 
	C723.062256,258.513855 737.085815,257.199982 751.118042,256.042755 
	C765.368958,254.867462 779.637634,253.869614 793.912720,253.037613 
	C808.245972,252.202225 822.593323,251.576233 836.940918,251.028275 
	C849.189941,250.560471 861.449646,250.006775 873.702087,250.061447 
	C909.955627,250.223145 946.208496,250.612000 982.460388,251.025940 
	C998.550171,251.209656 1014.637512,251.635635 1030.724609,252.010483 
	C1042.814453,252.292191 1054.901978,252.666351 1066.990601,253.001968 
	C1078.912598,253.332977 1090.834961,253.657898 1102.756592,254.002884 
	C1113.845947,254.323792 1124.933960,254.691055 1136.023682,254.995163 
	C1149.111938,255.354111 1162.200562,255.691315 1175.290161,255.993774 
	C1190.878418,256.354004 1206.468872,256.994019 1222.056396,256.939026 
	C1266.640015,256.781738 1311.223145,256.385651 1355.805298,255.967697 
	C1368.393311,255.849686 1380.977905,255.340347 1393.563599,254.997971 
	C1405.483154,254.673721 1417.404175,254.386612 1429.320923,253.977280 
	C1435.411743,253.768082 1441.506592,253.469818 1447.578735,252.962250 
	C1462.454712,251.718735 1477.316040,250.298553 1492.188599,249.012329 
	C1500.702148,248.276062 1509.259521,247.942291 1517.738281,246.932465 
	C1532.648193,245.156677 1547.514404,243.011627 1562.396240,241.001785 
	C1574.681396,239.342636 1587.030029,238.038605 1599.229980,235.891891 
	C1618.089844,232.573288 1636.932251,229.056656 1655.627563,224.924789 
	C1684.070068,218.638718 1712.417969,211.910675 1740.737915,205.087341 
	C1782.393066,195.051132 1823.135620,181.896317 1863.580078,167.888641 
	C1892.236572,157.963745 1920.558350,147.068237 1948.980957,136.475571 
	C1960.734985,132.095016 1972.362183,127.373634 1983.262329,123.113922 
	C1983.262329,95.622963 1983.262329,68.937393 1983.262329,41.664417 
	C1977.598267,44.204910 1972.724731,46.280334 1967.945923,48.555000 
	C1953.764771,55.305180 1939.748779,62.417042 1925.433105,68.865807 
	C1903.735229,78.640060 1882.050537,88.500496 1859.976685,97.369606 
	C1828.869263,109.868256 1797.592896,122.000946 1766.040771,133.319534 
	C1744.067383,141.201904 1721.671631,148.037933 1699.171875,154.288528 
	C1671.007202,162.112976 1642.707275,169.609863 1614.163208,175.868134 
	C1582.831909,182.737564 1551.197998,188.270248 1519.614136,193.928116 
	C1501.933350,197.095367 1484.118530,199.579453 1466.304810,201.919922 
	C1450.907104,203.942932 1435.446289,205.562103 1419.975708,206.934280 
	C1401.971924,208.531143 1383.935913,209.800003 1365.897461,210.955841 
	C1352.064697,211.842194 1338.210449,212.434753 1324.358521,212.968369 
	C1311.941406,213.446716 1299.513184,213.988327 1287.091797,213.945847 
	C1224.009399,213.730133 1160.928101,213.217514 1097.845703,213.034546 
	C1041.351318,212.870682 984.855957,212.961288 928.361145,213.044388 
	C920.438843,213.056030 912.519104,213.714249 904.595276,213.987808 
	C884.419922,214.684341 864.238831,215.230042 844.068298,216.041626 
	C833.382141,216.471573 822.712708,217.322693 812.036499,217.996597 
	C796.272522,218.991638 780.505493,219.943695 764.747253,221.022858 
	C756.897461,221.560440 749.047974,222.191086 741.227417,223.045700 
	C730.364868,224.232742 719.536865,225.733078 708.680481,226.980804 
	C699.101440,228.081757 689.472839,228.792343 679.921753,230.085968 
	C666.881531,231.852142 653.898438,234.037170 640.882690,235.988251 
	C627.220459,238.036224 613.503418,239.757812 599.892761,242.100708 
	C584.264893,244.790802 568.697083,247.857315 553.158875,251.032715 
	C534.899292,254.764252 516.645264,258.553711 498.488617,262.749695 
	C479.066864,267.238129 459.672821,271.901276 440.428986,277.090057 
	C419.650879,282.692505 399.060608,288.991516 377.563599,294.999847 
M733.654907,260.999603 
	C726.298218,261.665100 718.917175,262.133209 711.589905,263.037292 
	C696.495178,264.899750 681.432617,267.022003 666.350281,268.986511 
	C653.188110,270.700897 639.964722,272.017853 626.861938,274.098907 
	C607.826843,277.122131 588.834412,280.456665 569.899841,284.058136 
	C547.946045,288.233887 525.971863,292.393951 504.194366,297.381165 
	C479.275909,303.087616 454.422577,309.187012 429.795654,316.032166 
	C393.112762,326.228424 356.382629,336.390930 320.166779,348.096863 
	C274.812561,362.756561 229.923950,378.864532 184.906998,394.555786 
	C168.331619,400.333405 151.937042,406.635284 135.506805,412.822296 
	C114.207748,420.842773 92.932892,428.928772 71.691910,437.101685 
	C59.736519,441.701843 47.870323,446.533783 35.944794,451.268890 
	C39.321335,458.605469 39.592297,458.175629 45.305328,456.029144 
	C57.777161,451.343292 70.209114,446.540527 82.770058,442.104645 
	C118.079391,429.635345 153.297134,416.880188 188.829315,405.075531 
	C228.460617,391.908997 268.328918,379.440063 308.231415,367.112213 
	C328.345398,360.898041 348.689941,355.387054 369.062927,350.066071 
	C391.822083,344.121857 414.679596,338.529266 437.592712,333.207458 
	C455.109253,329.139008 472.707306,325.335083 490.398041,322.123840 
	C514.720215,317.708801 539.143372,313.832703 563.562805,309.976166 
	C581.690979,307.113251 599.852966,304.423553 618.053955,302.075623 
	C633.533447,300.078796 649.072510,298.485199 664.617615,297.069397 
	C681.825256,295.502136 699.061890,294.225769 716.300781,293.039001 
	C728.814209,292.177582 741.346802,291.540619 753.880249,291.037720 
	C766.302979,290.539185 778.738953,290.011017 791.166626,290.066010 
	C818.595093,290.187317 846.025146,290.508728 873.448425,291.054016 
	C893.312256,291.448944 913.169373,292.256866 933.023743,293.028717 
	C946.555054,293.554810 960.079651,294.278015 973.601440,295.018799 
	C990.727295,295.957001 1007.850159,296.956482 1024.968994,298.015381 
	C1040.095825,298.951019 1055.215454,300.005463 1070.338379,301.005493 
	C1085.461548,302.005554 1100.583740,303.023895 1115.708740,303.996155 
	C1131.664307,305.021820 1147.621826,306.019409 1163.580322,306.997040 
	C1174.939209,307.692932 1186.299683,308.365662 1197.662598,308.993713 
	C1210.354980,309.695312 1223.047485,310.410614 1235.746094,310.982178 
	C1252.270264,311.725891 1268.798462,312.391663 1285.328979,312.981171 
	C1297.422485,313.412476 1309.523682,313.993103 1321.619019,313.938385 
	C1356.552368,313.780304 1391.484985,313.386688 1426.416626,312.969086 
	C1436.520386,312.848328 1446.627686,312.491089 1456.718872,311.965149 
	C1473.362793,311.097656 1490.007812,310.181091 1506.627930,308.953613 
	C1521.213867,307.876343 1535.784302,306.514526 1550.328491,304.967773 
	C1567.439453,303.148041 1584.576294,301.406219 1601.589355,298.874207 
	C1620.626343,296.040985 1639.598022,292.671387 1658.488037,288.972748 
	C1684.536133,283.872559 1710.743408,279.258148 1736.408813,272.607666 
	C1775.258057,262.541016 1814.044189,251.968460 1852.223022,239.645935 
	C1895.831177,225.570908 1938.721069,209.275879 1982.006470,194.184570 
	C1985.282104,193.042511 1985.022339,191.231628 1984.986694,188.977188 
	C1984.670044,168.878906 1984.319824,148.781174 1983.963867,128.683533 
	C1983.955688,128.221085 1983.761353,127.761948 1983.601074,127.075546 
	C1981.989136,127.579506 1980.438354,127.984543 1978.944946,128.542938 
	C1941.946655,142.375732 1905.071411,156.549011 1867.916138,169.945877 
	C1846.621338,177.623947 1824.937134,184.250122 1803.309570,190.968216 
	C1786.192993,196.285126 1768.996094,201.406158 1751.654297,205.920624 
	C1727.976929,212.084320 1704.196533,217.891418 1680.332275,223.285431 
	C1659.785034,227.929718 1639.136108,232.222702 1618.389648,235.858261 
	C1597.905762,239.447800 1577.256592,242.111847 1556.654907,245.004410 
	C1541.385620,247.148300 1526.101929,249.240829 1510.777466,250.927719 
	C1495.890259,252.566498 1480.956055,253.835083 1466.018555,254.944534 
	C1449.717773,256.155243 1433.396973,257.144348 1417.071289,257.958130 
	C1400.036499,258.807220 1382.990356,259.545715 1365.940186,259.946899 
	C1342.849121,260.490295 1319.750366,260.780701 1296.653320,260.938019 
	C1288.561157,260.993134 1280.466919,260.163239 1272.368896,260.031708 
	C1246.610474,259.613342 1220.849121,259.383911 1195.090454,258.980103 
	C1180.994263,258.759094 1166.900879,258.352203 1152.807129,257.995117 
	C1140.711914,257.688721 1128.617554,257.342651 1116.523315,256.997803 
	C1105.261475,256.676636 1094.000366,256.328217 1082.738770,256.002228 
	C1070.977295,255.661774 1059.216064,255.320892 1047.453979,255.003860 
	C1034.526245,254.655396 1021.598999,254.259888 1008.669067,254.017380 
	C987.575867,253.621750 966.480957,253.095810 945.386292,253.072876 
	C927.458252,253.053375 909.529785,253.680420 891.601074,253.995468 
	C871.673279,254.345627 851.743835,254.615173 831.817200,255.021011 
	C821.385864,255.233459 810.956909,255.610718 800.530823,256.014008 
	C794.431274,256.249908 788.330322,256.568970 782.245850,257.050629 
	C766.357361,258.308319 750.477600,259.676117 733.654907,260.999603 
M1723.991943,337.597229 
	C1741.194824,333.409790 1758.531738,329.701294 1775.573364,324.936920 
	C1813.016602,314.468750 1850.478760,304.009216 1887.614380,292.516174 
	C1919.132568,282.761658 1950.217896,271.603973 1981.435425,260.893890 
	C1983.228027,260.278870 1985.773438,258.119690 1985.795288,256.647186 
	C1986.086304,236.910629 1985.990234,217.168350 1985.990234,196.790833 
	C1983.113281,197.574707 1981.675659,197.857468 1980.315674,198.353210 
	C1955.953247,207.232758 1931.746826,216.568268 1907.207397,224.926636 
	C1877.981201,234.881409 1848.647583,244.602356 1819.035400,253.320953 
	C1787.687500,262.550720 1756.084473,270.998444 1724.353027,278.813263 
	C1700.598511,284.663483 1676.497803,289.142609 1652.484497,293.893707 
	C1638.779175,296.605347 1624.981201,298.929291 1611.149902,300.902283 
	C1594.685303,303.250885 1578.146362,305.085052 1561.628662,307.050598 
	C1547.231201,308.763824 1532.838379,310.559265 1518.406860,311.931030 
	C1504.921143,313.212952 1491.397217,314.164520 1477.871582,314.935333 
	C1462.484863,315.812134 1447.083008,316.691345 1431.678223,316.914001 
	C1408.788208,317.244873 1385.886597,317.249176 1362.996094,316.939972 
	C1331.599609,316.515869 1300.206177,315.775909 1268.817017,314.955383 
	C1253.749268,314.561462 1238.690796,313.742859 1223.634521,312.989532 
	C1205.122437,312.063263 1186.613525,311.061462 1168.109375,309.985229 
	C1152.428589,309.073181 1136.755981,308.019562 1121.081055,307.009003 
	C1105.743408,306.020203 1090.407349,305.009277 1075.070801,304.003265 
	C1059.912720,303.008942 1044.756836,301.976349 1029.596191,301.019653 
	C1013.106812,299.979065 996.615417,298.966461 980.120483,298.017181 
	C967.407043,297.285553 954.690491,296.588501 941.968750,296.023926 
	C925.082031,295.274536 908.192749,294.538239 891.297424,294.038483 
	C874.354187,293.537384 857.402710,293.109955 840.453857,293.072266 
	C827.341003,293.043091 814.225647,293.631165 801.113159,294.005463 
	C778.718689,294.644745 756.322449,295.240906 733.933105,296.031647 
	C720.033508,296.522614 706.143738,297.306793 692.253113,298.027832 
	C687.800964,298.258942 683.349976,298.611267 678.916138,299.076935 
	C663.682129,300.676941 648.455627,302.348328 633.226990,303.999146 
	C620.781006,305.348267 608.283203,306.343964 595.902344,308.142883 
	C575.257690,311.142548 554.630676,314.339722 534.100464,318.033356 
	C503.888977,323.468842 473.604218,328.673553 443.655518,335.345062 
	C412.276398,342.335144 381.059143,350.242615 350.129242,359.012085 
	C308.129822,370.920013 266.230621,383.291870 224.731430,396.823303 
	C181.171280,411.026794 138.120544,426.795502 94.875542,441.961060 
	C77.585510,448.024445 60.371342,454.304138 42.684765,460.642273 
	C44.256458,462.641205 45.540417,464.274170 46.906544,466.011658 
	C47.559811,465.870209 48.207294,465.787598 48.817406,465.589752 
	C107.577805,446.537811 166.144424,426.858704 225.161469,408.638550 
	C263.302887,396.863220 302.027924,386.936981 340.638123,376.737488 
	C362.563721,370.945496 384.645691,365.549286 406.905273,361.262970 
	C441.625153,354.577332 476.506195,348.678925 511.415192,343.043030 
	C533.514587,339.475159 555.755615,336.706696 577.994812,334.108032 
	C596.021423,332.001587 614.124512,330.481995 632.222595,329.073975 
	C648.713928,327.791016 665.234436,326.777740 681.760254,326.072266 
	C697.028687,325.420502 712.322205,325.019897 727.602844,325.068970 
	C755.050354,325.157074 782.499878,325.501770 809.942017,326.059113 
	C826.177002,326.388855 842.399231,327.339813 858.627747,327.996002 
	C867.407776,328.351044 876.191528,328.624054 884.969116,329.029480 
	C890.254333,329.273621 895.536865,329.631012 900.810669,330.059479 
	C916.585693,331.341064 932.356140,332.679901 948.127808,334.002014 
	C956.343018,334.690704 964.563782,335.322052 972.770325,336.102203 
	C985.874695,337.347900 998.967529,338.713928 1012.068726,339.994080 
	C1019.777039,340.747253 1027.500488,341.352448 1035.202026,342.167511 
	C1046.643799,343.378387 1058.063477,344.800018 1069.509033,345.971802 
	C1077.709106,346.811310 1085.949585,347.257751 1094.147949,348.111664 
	C1108.898071,349.647919 1123.616577,351.495026 1138.373901,352.953888 
	C1150.697021,354.172150 1163.066040,354.922028 1175.398193,356.057373 
	C1192.315430,357.614746 1209.208496,359.436920 1226.128418,360.962372 
	C1238.959595,362.119202 1251.809814,363.090881 1264.663818,363.962677 
	C1281.003052,365.070831 1297.349609,366.091125 1313.702637,366.969818 
	C1328.593018,367.769928 1343.491455,368.488190 1358.395386,368.953735 
	C1375.005493,369.472534 1391.625977,369.942200 1408.241455,369.926941 
	C1427.187378,369.909515 1446.133545,369.377045 1465.077881,368.984192 
	C1477.192017,368.732971 1489.304810,368.386475 1501.414307,367.969818 
	C1507.531128,367.759399 1513.654541,367.468323 1519.748291,366.917969 
	C1536.981689,365.361572 1554.202637,363.669128 1571.425415,361.997192 
	C1581.593262,361.010101 1591.789185,360.217346 1601.911011,358.874023 
	C1614.769531,357.167480 1627.581055,355.085876 1640.384766,352.993622 
	C1655.445557,350.532532 1670.498291,348.008453 1685.513062,345.283478 
	C1698.106567,342.997925 1710.640503,340.384613 1723.991943,337.597229 
M1988.965698,395.914520 
	C1988.488647,377.218567 1988.011597,358.522644 1987.529785,339.635864 
	C1985.886719,339.953705 1984.383789,340.093353 1982.978149,340.539612 
	C1967.221191,345.541260 1951.507324,350.680206 1935.726318,355.603912 
	C1914.905029,362.100250 1894.217529,369.131409 1873.146606,374.699554 
	C1828.923340,386.385956 1784.587891,397.689056 1740.095581,408.298889 
	C1718.278320,413.501526 1696.071899,417.191437 1673.922607,420.844482 
	C1655.844727,423.826019 1637.609253,425.895416 1619.408447,428.076050 
	C1601.365112,430.237793 1583.304443,432.343994 1565.201904,433.897156 
	C1548.536987,435.327026 1531.814087,436.159607 1515.101807,436.935181 
	C1501.992188,437.543549 1488.858765,437.976013 1475.737793,437.929779 
	C1453.783813,437.852448 1431.831177,437.331116 1409.878052,436.995880 
	C1409.378174,436.988251 1408.877808,436.986176 1408.379028,436.956787 
	C1391.680908,435.973083 1374.981934,435.005219 1358.285400,433.993225 
	C1347.540649,433.342010 1336.780762,432.841827 1326.062012,431.887665 
	C1309.770020,430.437439 1293.509033,428.640137 1277.232666,427.012573 
	C1263.416504,425.631104 1249.579712,424.437042 1235.784058,422.876404 
	C1219.868774,421.075958 1203.986938,418.978455 1188.093994,416.982788 
	C1177.112183,415.603790 1166.126465,414.250275 1155.160034,412.755951 
	C1141.583008,410.905823 1128.024170,408.923767 1114.457886,406.994965 
	C1101.866455,405.204773 1089.273804,403.424683 1076.685669,401.612823 
	C1061.485107,399.425018 1046.288696,397.208466 1031.090576,395.004242 
	C1018.179199,393.131653 1005.274658,391.210175 992.354675,389.398682 
	C976.813049,387.219635 961.274353,385.006958 945.704712,383.044525 
	C930.782898,381.163727 915.825012,379.568115 900.879578,377.877167 
	C880.519592,375.573547 860.174683,373.115295 839.788635,371.069275 
	C823.656677,369.450226 807.489624,368.065857 791.307190,367.093262 
	C769.786987,365.799927 748.235474,364.148193 726.699646,364.180115 
	C682.792419,364.245148 638.884583,365.227203 594.981506,366.067688 
	C582.563965,366.305420 570.137329,367.068817 557.759155,368.114655 
	C541.795288,369.463501 525.870789,371.290802 509.938873,373.000916 
	C494.665649,374.640350 479.342438,375.968597 464.152405,378.193146 
	C439.505920,381.802643 414.843262,385.471924 390.382904,390.140198 
	C358.943237,396.140472 327.593567,402.703888 296.399689,409.871399 
	C271.608887,415.567688 247.016205,422.197845 222.505783,429.024536 
	C191.793137,437.578705 161.231812,446.680695 130.649582,455.696869 
	C113.533707,460.742950 96.490952,466.039917 79.449097,471.332825 
	C72.287529,473.557098 65.213470,476.063110 57.988613,478.478149 
	C63.358471,487.680664 63.703190,487.762268 73.084068,484.897217 
	C81.928856,482.195923 90.788490,479.533661 99.695526,477.047394 
	C130.551773,468.434326 161.314804,459.451813 192.335022,451.471680 
	C223.526321,443.447510 254.902039,436.089355 286.350281,429.132416 
	C307.946014,424.355011 329.764893,420.541229 351.556244,416.707123 
	C369.763763,413.503571 388.033020,410.574982 406.354156,408.114563 
	C424.528625,405.673859 442.791260,403.865448 461.035065,401.971375 
	C481.259247,399.871674 501.488068,397.775116 521.748535,396.079987 
	C537.756409,394.740692 553.805847,393.807404 569.853943,393.063019 
	C589.089783,392.170807 608.342529,391.160797 627.590149,391.114441 
	C660.374939,391.035492 693.162048,391.618835 725.946655,392.040497 
	C733.571106,392.138580 741.201172,392.543701 748.808411,393.089722 
	C765.638245,394.297668 782.457520,395.656952 799.276733,397.008301 
	C811.644104,398.001953 824.025757,398.880463 836.362549,400.176544 
	C849.499146,401.556732 862.593262,403.346497 875.700867,404.997162 
	C889.469238,406.731018 903.257935,408.330292 916.989807,410.319519 
	C933.329529,412.686493 949.626343,415.355988 965.927002,417.985626 
	C985.493286,421.142090 1005.058777,424.308197 1024.597412,427.629822 
	C1044.305664,430.980286 1063.962891,434.631531 1083.674805,437.959412 
	C1106.645630,441.837494 1129.649658,445.520233 1152.643066,449.264313 
	C1170.578613,452.184814 1188.488770,455.281464 1206.467163,457.910736 
	C1224.617065,460.565094 1242.831909,462.781586 1261.028198,465.112579 
	C1276.760986,467.127991 1292.486938,469.227325 1308.254761,470.928192 
	C1320.591187,472.258911 1332.988037,473.024567 1345.356323,474.062378 
	C1360.852051,475.362610 1376.333496,476.865997 1391.844604,477.941711 
	C1405.239502,478.870667 1418.663086,479.428802 1432.081665,479.956512 
	C1444.364990,480.439514 1456.660156,480.988434 1468.947510,480.934082 
	C1497.067139,480.809692 1525.188599,480.495514 1553.303101,479.944458 
	C1571.550415,479.586792 1589.794800,478.841675 1608.025635,477.962372 
	C1623.733276,477.204742 1639.432251,476.169739 1655.112427,474.964600 
	C1669.445312,473.863037 1683.780273,472.646729 1698.056274,470.981934 
	C1718.710571,468.573273 1739.401733,466.260437 1759.913330,462.905243 
	C1783.678833,459.017822 1807.403931,454.659943 1830.903076,449.415375 
	C1878.570435,438.776947 1924.968140,423.864349 1970.315308,405.740021 
	C1976.680298,403.196045 1982.692017,399.768646 1988.965698,395.914520 
z"/>
<path fill="#009640" opacity="1.000000" stroke="none" 
	d="
M605.884216,334.998016 
	C619.700623,333.996216 633.044800,332.884552 646.405396,332.027374 
	C659.130554,331.210938 671.869202,330.577301 684.608704,330.018219 
	C695.053650,329.559845 705.506470,329.215149 715.959595,329.021271 
	C738.074524,328.611145 760.191223,328.147583 782.308472,328.069855 
	C795.425842,328.023773 808.550110,328.550629 821.663086,329.039795 
	C835.573608,329.558746 849.483948,330.184784 863.377319,331.040649 
	C882.696411,332.230774 902.006958,333.583466 921.307556,335.045441 
	C936.960999,336.231140 952.601196,337.607025 968.235046,339.032562 
	C985.668579,340.622253 1003.092224,342.325073 1020.513123,344.049591 
	C1036.776245,345.659515 1053.029053,347.374512 1069.288696,349.021179 
	C1085.877441,350.701141 1102.466064,352.384460 1119.060181,354.010742 
	C1136.479004,355.717865 1153.899780,357.405945 1171.328003,359.014740 
	C1186.459961,360.411530 1201.596680,361.768341 1216.743408,362.992798 
	C1234.374023,364.418060 1252.010742,365.787231 1269.658081,366.982239 
	C1286.501465,368.122803 1303.354736,369.157532 1320.216919,369.964722 
	C1337.942627,370.813171 1355.678833,371.576477 1373.419556,371.945496 
	C1399.864014,372.495605 1426.317627,372.998322 1452.764648,372.885925 
	C1471.005493,372.808441 1489.257324,371.931427 1507.475586,370.905853 
	C1524.639160,369.939606 1541.818115,368.780548 1558.895752,366.863953 
	C1584.452637,363.995728 1609.953003,360.578491 1635.430420,357.055237 
	C1676.272705,351.407135 1716.697021,343.478271 1756.615112,333.181366 
	C1787.237427,325.282318 1817.802246,317.108185 1848.168213,308.283722 
	C1873.947266,300.792175 1899.459473,292.361847 1924.987549,284.033447 
	C1943.945679,277.848480 1962.739014,271.158752 1981.609375,264.704254 
	C1982.853394,264.278717 1984.127441,263.941345 1986.713257,263.164856 
	C1986.713257,287.479126 1986.713257,311.274567 1986.713257,335.946869 
	C1961.666138,343.747925 1935.471558,351.999695 1909.216064,360.052368 
	C1890.328979,365.845154 1871.482178,371.829987 1852.400391,376.914337 
	C1820.906494,385.305878 1789.288086,393.248444 1757.620850,400.964081 
	C1741.162231,404.974152 1724.539185,408.370880 1707.893188,411.532898 
	C1692.859131,414.388733 1677.703857,416.619171 1662.581177,418.992889 
	C1649.409180,421.060394 1636.234741,423.152435 1623.011353,424.841003 
	C1612.374023,426.199310 1601.664429,427.001495 1590.981689,427.994324 
	C1576.518433,429.338531 1562.055420,430.687927 1547.582031,431.914978 
	C1541.479858,432.432343 1535.354492,432.884399 1529.234985,432.954041 
	C1492.788330,433.368835 1456.340088,433.890900 1419.892456,433.887421 
	C1404.986450,433.885986 1390.072876,432.792664 1375.176392,431.953369 
	C1360.473267,431.125000 1345.765991,430.232635 1331.099243,428.930023 
	C1311.526489,427.191742 1291.992676,425.013947 1272.439087,423.056152 
	C1258.633545,421.673859 1244.797119,420.561646 1231.020874,418.934845 
	C1213.825073,416.904114 1196.679443,414.448883 1179.507324,412.214447 
	C1165.927368,410.447388 1152.330444,408.808594 1138.758789,406.980774 
	C1125.525024,405.198517 1112.314697,403.241760 1099.092407,401.374268 
	C1086.353394,399.575104 1073.609375,397.812378 1060.872925,395.996521 
	C1048.466309,394.227661 1036.068848,392.395142 1023.662781,390.621643 
	C1012.728088,389.058563 1001.787231,387.539093 990.849243,385.999115 
	C974.853210,383.747009 958.871643,381.384918 942.856628,379.276550 
	C930.750793,377.682831 918.599731,376.434814 906.473633,374.991547 
	C896.323792,373.783417 886.190674,372.429596 876.032227,371.301331 
	C867.986877,370.407745 859.913574,369.766266 851.854126,368.998413 
	C838.378906,367.714569 824.908081,366.383331 811.428589,365.146790 
	C806.156616,364.663177 800.871094,364.274841 795.583130,364.027802 
	C780.016785,363.300598 764.451599,362.460815 748.875916,362.038605 
	C718.812561,361.223694 688.743896,360.264526 658.674316,360.142120 
	C638.938049,360.061768 619.187683,361.159302 599.459717,362.075684 
	C584.419800,362.774353 569.384277,363.778046 554.384949,365.083832 
	C538.929810,366.429352 523.518066,368.280060 508.092285,369.955627 
	C492.832001,371.613220 477.531097,372.991608 462.333069,375.104218 
	C443.893341,377.667511 425.506836,380.665710 407.163147,383.854370 
	C387.193268,387.325684 367.198364,390.767181 347.395203,395.056549 
	C317.921021,401.440765 288.420502,407.855530 259.268524,415.537445 
	C221.352692,425.528717 183.699707,436.542908 146.061890,447.555359 
	C117.458183,455.924530 89.004524,464.820526 60.607323,473.868774 
	C55.358250,475.541290 52.516972,474.219116 49.714405,469.352509 
	C51.866535,468.489014 53.720993,467.633545 55.646107,466.989105 
	C88.169144,456.101929 120.532677,444.700714 153.271271,434.504089 
	C199.359512,420.149658 245.614410,406.298859 292.017822,392.999573 
	C319.861572,385.019501 347.981293,377.867462 376.237335,371.498352 
	C405.448517,364.914001 434.908875,359.361969 464.384125,354.045380 
	C487.872375,349.808685 511.513214,346.366058 535.150269,343.023712 
	C552.121277,340.623993 569.195374,338.949097 586.228699,336.996674 
	C592.617920,336.264343 599.021912,335.661346 605.884216,334.998016 
z"/>
<path fill="#DBE283" opacity="1.000000" stroke="none" 
	d="
M377.976013,294.993286 
	C399.060608,288.991516 419.650879,282.692505 440.428986,277.090057 
	C459.672821,271.901276 479.066864,267.238129 498.488617,262.749695 
	C516.645264,258.553711 534.899292,254.764252 553.158875,251.032715 
	C568.697083,247.857315 584.264893,244.790802 599.892761,242.100708 
	C613.503418,239.757812 627.220459,238.036224 640.882690,235.988251 
	C653.898438,234.037170 666.881531,231.852142 679.921753,230.085968 
	C689.472839,228.792343 699.101440,228.081757 708.680481,226.980804 
	C719.536865,225.733078 730.364868,224.232742 741.227417,223.045700 
	C749.047974,222.191086 756.897461,221.560440 764.747253,221.022858 
	C780.505493,219.943695 796.272522,218.991638 812.036499,217.996597 
	C822.712708,217.322693 833.382141,216.471573 844.068298,216.041626 
	C864.238831,215.230042 884.419922,214.684341 904.595276,213.987808 
	C912.519104,213.714249 920.438843,213.056030 928.361145,213.044388 
	C984.855957,212.961288 1041.351318,212.870682 1097.845703,213.034546 
	C1160.928101,213.217514 1224.009399,213.730133 1287.091797,213.945847 
	C1299.513184,213.988327 1311.941406,213.446716 1324.358521,212.968369 
	C1338.210449,212.434753 1352.064697,211.842194 1365.897461,210.955841 
	C1383.935913,209.800003 1401.971924,208.531143 1419.975708,206.934280 
	C1435.446289,205.562103 1450.907104,203.942932 1466.304810,201.919922 
	C1484.118530,199.579453 1501.933350,197.095367 1519.614136,193.928116 
	C1551.197998,188.270248 1582.831909,182.737564 1614.163208,175.868134 
	C1642.707275,169.609863 1671.007202,162.112976 1699.171875,154.288528 
	C1721.671631,148.037933 1744.067383,141.201904 1766.040771,133.319534 
	C1797.592896,122.000946 1828.869263,109.868256 1859.976685,97.369606 
	C1882.050537,88.500496 1903.735229,78.640060 1925.433105,68.865807 
	C1939.748779,62.417042 1953.764771,55.305180 1967.945923,48.555000 
	C1972.724731,46.280334 1977.598267,44.204910 1983.262329,41.664417 
	C1983.262329,68.937393 1983.262329,95.622963 1983.262329,123.113922 
	C1972.362183,127.373634 1960.734985,132.095016 1948.980957,136.475571 
	C1920.558350,147.068237 1892.236572,157.963745 1863.580078,167.888641 
	C1823.135620,181.896317 1782.393066,195.051132 1740.737915,205.087341 
	C1712.417969,211.910675 1684.070068,218.638718 1655.627563,224.924789 
	C1636.932251,229.056656 1618.089844,232.573288 1599.229980,235.891891 
	C1587.030029,238.038605 1574.681396,239.342636 1562.396240,241.001785 
	C1547.514404,243.011627 1532.648193,245.156677 1517.738281,246.932465 
	C1509.259521,247.942291 1500.702148,248.276062 1492.188599,249.012329 
	C1477.316040,250.298553 1462.454712,251.718735 1447.578735,252.962250 
	C1441.506592,253.469818 1435.411743,253.768082 1429.320923,253.977280 
	C1417.404175,254.386612 1405.483154,254.673721 1393.563599,254.997971 
	C1380.977905,255.340347 1368.393311,255.849686 1355.805298,255.967697 
	C1311.223145,256.385651 1266.640015,256.781738 1222.056396,256.939026 
	C1206.468872,256.994019 1190.878418,256.354004 1175.290161,255.993774 
	C1162.200562,255.691315 1149.111938,255.354111 1136.023682,254.995163 
	C1124.933960,254.691055 1113.845947,254.323792 1102.756592,254.002884 
	C1090.834961,253.657898 1078.912598,253.332977 1066.990601,253.001968 
	C1054.901978,252.666351 1042.814453,252.292191 1030.724609,252.010483 
	C1014.637512,251.635635 998.550171,251.209656 982.460388,251.025940 
	C946.208496,250.612000 909.955627,250.223145 873.702087,250.061447 
	C861.449646,250.006775 849.189941,250.560471 836.940918,251.028275 
	C822.593323,251.576233 808.245972,252.202225 793.912720,253.037613 
	C779.637634,253.869614 765.368958,254.867462 751.118042,256.042755 
	C737.085815,257.199982 723.062256,258.513855 709.066223,260.045105 
	C692.360901,261.872772 675.647827,263.715973 659.013306,266.081299 
	C640.366272,268.732819 621.786255,271.873779 603.208923,274.991394 
	C586.099792,277.862671 569.001892,280.822083 551.956665,284.046967 
	C537.097046,286.858368 522.247559,289.791718 507.518768,293.210602 
	C482.955444,298.912262 458.429321,304.800293 434.006775,311.073944 
	C414.799500,316.007874 395.615936,321.143127 376.695953,327.064789 
	C332.985535,340.745392 289.262146,354.428192 245.886093,369.120056 
	C210.302399,381.172577 175.139175,394.486023 139.924133,407.601837 
	C106.174652,420.171814 72.540665,433.059326 39.002571,446.182068 
	C33.377335,448.383118 30.233265,447.433502 27.670938,442.337158 
	C27.038765,441.079834 25.789415,440.132751 24.233709,438.377167 
	C139.805389,384.114899 255.840393,332.587860 377.976013,294.993286 
z"/>
<path fill="#AFCB07" opacity="1.000000" stroke="none" 
	d="
M734.124634,260.999817 
	C750.477600,259.676117 766.357361,258.308319 782.245850,257.050629 
	C788.330322,256.568970 794.431274,256.249908 800.530823,256.014008 
	C810.956909,255.610718 821.385864,255.233459 831.817200,255.021011 
	C851.743835,254.615173 871.673279,254.345627 891.601074,253.995468 
	C909.529785,253.680420 927.458252,253.053375 945.386292,253.072876 
	C966.480957,253.095810 987.575867,253.621750 1008.669067,254.017380 
	C1021.598999,254.259888 1034.526245,254.655396 1047.453979,255.003860 
	C1059.216064,255.320892 1070.977295,255.661774 1082.738770,256.002228 
	C1094.000366,256.328217 1105.261475,256.676636 1116.523315,256.997803 
	C1128.617554,257.342651 1140.711914,257.688721 1152.807129,257.995117 
	C1166.900879,258.352203 1180.994263,258.759094 1195.090454,258.980103 
	C1220.849121,259.383911 1246.610474,259.613342 1272.368896,260.031708 
	C1280.466919,260.163239 1288.561157,260.993134 1296.653320,260.938019 
	C1319.750366,260.780701 1342.849121,260.490295 1365.940186,259.946899 
	C1382.990356,259.545715 1400.036499,258.807220 1417.071289,257.958130 
	C1433.396973,257.144348 1449.717773,256.155243 1466.018555,254.944534 
	C1480.956055,253.835083 1495.890259,252.566498 1510.777466,250.927719 
	C1526.101929,249.240829 1541.385620,247.148300 1556.654907,245.004410 
	C1577.256592,242.111847 1597.905762,239.447800 1618.389648,235.858261 
	C1639.136108,232.222702 1659.785034,227.929718 1680.332275,223.285431 
	C1704.196533,217.891418 1727.976929,212.084320 1751.654297,205.920624 
	C1768.996094,201.406158 1786.192993,196.285126 1803.309570,190.968216 
	C1824.937134,184.250122 1846.621338,177.623947 1867.916138,169.945877 
	C1905.071411,156.549011 1941.946655,142.375732 1978.944946,128.542938 
	C1980.438354,127.984543 1981.989136,127.579506 1983.601074,127.075546 
	C1983.761353,127.761948 1983.955688,128.221085 1983.963867,128.683533 
	C1984.319824,148.781174 1984.670044,168.878906 1984.986694,188.977188 
	C1985.022339,191.231628 1985.282104,193.042511 1982.006470,194.184570 
	C1938.721069,209.275879 1895.831177,225.570908 1852.223022,239.645935 
	C1814.044189,251.968460 1775.258057,262.541016 1736.408813,272.607666 
	C1710.743408,279.258148 1684.536133,283.872559 1658.488037,288.972748 
	C1639.598022,292.671387 1620.626343,296.040985 1601.589355,298.874207 
	C1584.576294,301.406219 1567.439453,303.148041 1550.328491,304.967773 
	C1535.784302,306.514526 1521.213867,307.876343 1506.627930,308.953613 
	C1490.007812,310.181091 1473.362793,311.097656 1456.718872,311.965149 
	C1446.627686,312.491089 1436.520386,312.848328 1426.416626,312.969086 
	C1391.484985,313.386688 1356.552368,313.780304 1321.619019,313.938385 
	C1309.523682,313.993103 1297.422485,313.412476 1285.328979,312.981171 
	C1268.798462,312.391663 1252.270264,311.725891 1235.746094,310.982178 
	C1223.047485,310.410614 1210.354980,309.695312 1197.662598,308.993713 
	C1186.299683,308.365662 1174.939209,307.692932 1163.580322,306.997040 
	C1147.621826,306.019409 1131.664307,305.021820 1115.708740,303.996155 
	C1100.583740,303.023895 1085.461548,302.005554 1070.338379,301.005493 
	C1055.215454,300.005463 1040.095825,298.951019 1024.968994,298.015381 
	C1007.850159,296.956482 990.727295,295.957001 973.601440,295.018799 
	C960.079651,294.278015 946.555054,293.554810 933.023743,293.028717 
	C913.169373,292.256866 893.312256,291.448944 873.448425,291.054016 
	C846.025146,290.508728 818.595093,290.187317 791.166626,290.066010 
	C778.738953,290.011017 766.302979,290.539185 753.880249,291.037720 
	C741.346802,291.540619 728.814209,292.177582 716.300781,293.039001 
	C699.061890,294.225769 681.825256,295.502136 664.617615,297.069397 
	C649.072510,298.485199 633.533447,300.078796 618.053955,302.075623 
	C599.852966,304.423553 581.690979,307.113251 563.562805,309.976166 
	C539.143372,313.832703 514.720215,317.708801 490.398041,322.123840 
	C472.707306,325.335083 455.109253,329.139008 437.592712,333.207458 
	C414.679596,338.529266 391.822083,344.121857 369.062927,350.066071 
	C348.689941,355.387054 328.345398,360.898041 308.231415,367.112213 
	C268.328918,379.440063 228.460617,391.908997 188.829315,405.075531 
	C153.297134,416.880188 118.079391,429.635345 82.770058,442.104645 
	C70.209114,446.540527 57.777161,451.343292 45.305328,456.029144 
	C39.592297,458.175629 39.321335,458.605469 35.944794,451.268890 
	C47.870323,446.533783 59.736519,441.701843 71.691910,437.101685 
	C92.932892,428.928772 114.207748,420.842773 135.506805,412.822296 
	C151.937042,406.635284 168.331619,400.333405 184.906998,394.555786 
	C229.923950,378.864532 274.812561,362.756561 320.166779,348.096863 
	C356.382629,336.390930 393.112762,326.228424 429.795654,316.032166 
	C454.422577,309.187012 479.275909,303.087616 504.194366,297.381165 
	C525.971863,292.393951 547.946045,288.233887 569.899841,284.058136 
	C588.834412,280.456665 607.826843,277.122131 626.861938,274.098907 
	C639.964722,272.017853 653.188110,270.700897 666.350281,268.986511 
	C681.432617,267.022003 696.495178,264.899750 711.589905,263.037292 
	C718.917175,262.133209 726.298218,261.665100 734.124634,260.999817 
z"/>
<path fill="#57A431" opacity="1.000000" stroke="none" 
	d="
M1723.596436,337.756836 
	C1710.640503,340.384613 1698.106567,342.997925 1685.513062,345.283478 
	C1670.498291,348.008453 1655.445557,350.532532 1640.384766,352.993622 
	C1627.581055,355.085876 1614.769531,357.167480 1601.911011,358.874023 
	C1591.789185,360.217346 1581.593262,361.010101 1571.425415,361.997192 
	C1554.202637,363.669128 1536.981689,365.361572 1519.748291,366.917969 
	C1513.654541,367.468323 1507.531128,367.759399 1501.414307,367.969818 
	C1489.304810,368.386475 1477.192017,368.732971 1465.077881,368.984192 
	C1446.133545,369.377045 1427.187378,369.909515 1408.241455,369.926941 
	C1391.625977,369.942200 1375.005493,369.472534 1358.395386,368.953735 
	C1343.491455,368.488190 1328.593018,367.769928 1313.702637,366.969818 
	C1297.349609,366.091125 1281.003052,365.070831 1264.663818,363.962677 
	C1251.809814,363.090881 1238.959595,362.119202 1226.128418,360.962372 
	C1209.208496,359.436920 1192.315430,357.614746 1175.398193,356.057373 
	C1163.066040,354.922028 1150.697021,354.172150 1138.373901,352.953888 
	C1123.616577,351.495026 1108.898071,349.647919 1094.147949,348.111664 
	C1085.949585,347.257751 1077.709106,346.811310 1069.509033,345.971802 
	C1058.063477,344.800018 1046.643799,343.378387 1035.202026,342.167511 
	C1027.500488,341.352448 1019.777039,340.747253 1012.068726,339.994080 
	C998.967529,338.713928 985.874695,337.347900 972.770325,336.102203 
	C964.563782,335.322052 956.343018,334.690704 948.127808,334.002014 
	C932.356140,332.679901 916.585693,331.341064 900.810669,330.059479 
	C895.536865,329.631012 890.254333,329.273621 884.969116,329.029480 
	C876.191528,328.624054 867.407776,328.351044 858.627747,327.996002 
	C842.399231,327.339813 826.177002,326.388855 809.942017,326.059113 
	C782.499878,325.501770 755.050354,325.157074 727.602844,325.068970 
	C712.322205,325.019897 697.028687,325.420502 681.760254,326.072266 
	C665.234436,326.777740 648.713928,327.791016 632.222595,329.073975 
	C614.124512,330.481995 596.021423,332.001587 577.994812,334.108032 
	C555.755615,336.706696 533.514587,339.475159 511.415192,343.043030 
	C476.506195,348.678925 441.625153,354.577332 406.905273,361.262970 
	C384.645691,365.549286 362.563721,370.945496 340.638123,376.737488 
	C302.027924,386.936981 263.302887,396.863220 225.161469,408.638550 
	C166.144424,426.858704 107.577805,446.537811 48.817406,465.589752 
	C48.207294,465.787598 47.559811,465.870209 46.906544,466.011658 
	C45.540417,464.274170 44.256458,462.641205 42.684765,460.642273 
	C60.371342,454.304138 77.585510,448.024445 94.875542,441.961060 
	C138.120544,426.795502 181.171280,411.026794 224.731430,396.823303 
	C266.230621,383.291870 308.129822,370.920013 350.129242,359.012085 
	C381.059143,350.242615 412.276398,342.335144 443.655518,335.345062 
	C473.604218,328.673553 503.888977,323.468842 534.100464,318.033356 
	C554.630676,314.339722 575.257690,311.142548 595.902344,308.142883 
	C608.283203,306.343964 620.781006,305.348267 633.226990,303.999146 
	C648.455627,302.348328 663.682129,300.676941 678.916138,299.076935 
	C683.349976,298.611267 687.800964,298.258942 692.253113,298.027832 
	C706.143738,297.306793 720.033508,296.522614 733.933105,296.031647 
	C756.322449,295.240906 778.718689,294.644745 801.113159,294.005463 
	C814.225647,293.631165 827.341003,293.043091 840.453857,293.072266 
	C857.402710,293.109955 874.354187,293.537384 891.297424,294.038483 
	C908.192749,294.538239 925.082031,295.274536 941.968750,296.023926 
	C954.690491,296.588501 967.407043,297.285553 980.120483,298.017181 
	C996.615417,298.966461 1013.106812,299.979065 1029.596191,301.019653 
	C1044.756836,301.976349 1059.912720,303.008942 1075.070801,304.003265 
	C1090.407349,305.009277 1105.743408,306.020203 1121.081055,307.009003 
	C1136.755981,308.019562 1152.428589,309.073181 1168.109375,309.985229 
	C1186.613525,311.061462 1205.122437,312.063263 1223.634521,312.989532 
	C1238.690796,313.742859 1253.749268,314.561462 1268.817017,314.955383 
	C1300.206177,315.775909 1331.599609,316.515869 1362.996094,316.939972 
	C1385.886597,317.249176 1408.788208,317.244873 1431.678223,316.914001 
	C1447.083008,316.691345 1462.484863,315.812134 1477.871582,314.935333 
	C1491.397217,314.164520 1504.921143,313.212952 1518.406860,311.931030 
	C1532.838379,310.559265 1547.231201,308.763824 1561.628662,307.050598 
	C1578.146362,305.085052 1594.685303,303.250885 1611.149902,300.902283 
	C1624.981201,298.929291 1638.779175,296.605347 1652.484497,293.893707 
	C1676.497803,289.142609 1700.598511,284.663483 1724.353027,278.813263 
	C1756.084473,270.998444 1787.687500,262.550720 1819.035400,253.320953 
	C1848.647583,244.602356 1877.981201,234.881409 1907.207397,224.926636 
	C1931.746826,216.568268 1955.953247,207.232758 1980.315674,198.353210 
	C1981.675659,197.857468 1983.113281,197.574707 1985.990234,196.790833 
	C1985.990234,217.168350 1986.086304,236.910629 1985.795288,256.647186 
	C1985.773438,258.119690 1983.228027,260.278870 1981.435425,260.893890 
	C1950.217896,271.603973 1919.132568,282.761658 1887.614380,292.516174 
	C1850.478760,304.009216 1813.016602,314.468750 1775.573364,324.936920 
	C1758.531738,329.701294 1741.194824,333.409790 1723.596436,337.756836 
z"/>
<path fill="#007B3D" opacity="1.000000" stroke="none" 
	d="
M1988.916504,396.332336 
	C1982.692017,399.768646 1976.680298,403.196045 1970.315308,405.740021 
	C1924.968140,423.864349 1878.570435,438.776947 1830.903076,449.415375 
	C1807.403931,454.659943 1783.678833,459.017822 1759.913330,462.905243 
	C1739.401733,466.260437 1718.710571,468.573273 1698.056274,470.981934 
	C1683.780273,472.646729 1669.445312,473.863037 1655.112427,474.964600 
	C1639.432251,476.169739 1623.733276,477.204742 1608.025635,477.962372 
	C1589.794800,478.841675 1571.550415,479.586792 1553.303101,479.944458 
	C1525.188599,480.495514 1497.067139,480.809692 1468.947510,480.934082 
	C1456.660156,480.988434 1444.364990,480.439514 1432.081665,479.956512 
	C1418.663086,479.428802 1405.239502,478.870667 1391.844604,477.941711 
	C1376.333496,476.865997 1360.852051,475.362610 1345.356323,474.062378 
	C1332.988037,473.024567 1320.591187,472.258911 1308.254761,470.928192 
	C1292.486938,469.227325 1276.760986,467.127991 1261.028198,465.112579 
	C1242.831909,462.781586 1224.617065,460.565094 1206.467163,457.910736 
	C1188.488770,455.281464 1170.578613,452.184814 1152.643066,449.264313 
	C1129.649658,445.520233 1106.645630,441.837494 1083.674805,437.959412 
	C1063.962891,434.631531 1044.305664,430.980286 1024.597412,427.629822 
	C1005.058777,424.308197 985.493286,421.142090 965.927002,417.985626 
	C949.626343,415.355988 933.329529,412.686493 916.989807,410.319519 
	C903.257935,408.330292 889.469238,406.731018 875.700867,404.997162 
	C862.593262,403.346497 849.499146,401.556732 836.362549,400.176544 
	C824.025757,398.880463 811.644104,398.001953 799.276733,397.008301 
	C782.457520,395.656952 765.638245,394.297668 748.808411,393.089722 
	C741.201172,392.543701 733.571106,392.138580 725.946655,392.040497 
	C693.162048,391.618835 660.374939,391.035492 627.590149,391.114441 
	C608.342529,391.160797 589.089783,392.170807 569.853943,393.063019 
	C553.805847,393.807404 537.756409,394.740692 521.748535,396.079987 
	C501.488068,397.775116 481.259247,399.871674 461.035065,401.971375 
	C442.791260,403.865448 424.528625,405.673859 406.354156,408.114563 
	C388.033020,410.574982 369.763763,413.503571 351.556244,416.707123 
	C329.764893,420.541229 307.946014,424.355011 286.350281,429.132416 
	C254.902039,436.089355 223.526321,443.447510 192.335022,451.471680 
	C161.314804,459.451813 130.551773,468.434326 99.695526,477.047394 
	C90.788490,479.533661 81.928856,482.195923 73.084068,484.897217 
	C63.703190,487.762268 63.358471,487.680664 57.988613,478.478149 
	C65.213470,476.063110 72.287529,473.557098 79.449097,471.332825 
	C96.490952,466.039917 113.533707,460.742950 130.649582,455.696869 
	C161.231812,446.680695 191.793137,437.578705 222.505783,429.024536 
	C247.016205,422.197845 271.608887,415.567688 296.399689,409.871399 
	C327.593567,402.703888 358.943237,396.140472 390.382904,390.140198 
	C414.843262,385.471924 439.505920,381.802643 464.152405,378.193146 
	C479.342438,375.968597 494.665649,374.640350 509.938873,373.000916 
	C525.870789,371.290802 541.795288,369.463501 557.759155,368.114655 
	C570.137329,367.068817 582.563965,366.305420 594.981506,366.067688 
	C638.884583,365.227203 682.792419,364.245148 726.699646,364.180115 
	C748.235474,364.148193 769.786987,365.799927 791.307190,367.093262 
	C807.489624,368.065857 823.656677,369.450226 839.788635,371.069275 
	C860.174683,373.115295 880.519592,375.573547 900.879578,377.877167 
	C915.825012,379.568115 930.782898,381.163727 945.704712,383.044525 
	C961.274353,385.006958 976.813049,387.219635 992.354675,389.398682 
	C1005.274658,391.210175 1018.179199,393.131653 1031.090576,395.004242 
	C1046.288696,397.208466 1061.485107,399.425018 1076.685669,401.612823 
	C1089.273804,403.424683 1101.866455,405.204773 1114.457886,406.994965 
	C1128.024170,408.923767 1141.583008,410.905823 1155.160034,412.755951 
	C1166.126465,414.250275 1177.112183,415.603790 1188.093994,416.982788 
	C1203.986938,418.978455 1219.868774,421.075958 1235.784058,422.876404 
	C1249.579712,424.437042 1263.416504,425.631104 1277.232666,427.012573 
	C1293.509033,428.640137 1309.770020,430.437439 1326.062012,431.887665 
	C1336.780762,432.841827 1347.540649,433.342010 1358.285400,433.993225 
	C1374.981934,435.005219 1391.680908,435.973083 1408.379028,436.956787 
	C1408.877808,436.986176 1409.378174,436.988251 1409.878052,436.995880 
	C1431.831177,437.331116 1453.783813,437.852448 1475.737793,437.929779 
	C1488.858765,437.976013 1501.992188,437.543549 1515.101807,436.935181 
	C1531.814087,436.159607 1548.536987,435.327026 1565.201904,433.897156 
	C1583.304443,432.343994 1601.365112,430.237793 1619.408447,428.076050 
	C1637.609253,425.895416 1655.844727,423.826019 1673.922607,420.844482 
	C1696.071899,417.191437 1718.278320,413.501526 1740.095581,408.298889 
	C1784.587891,397.689056 1828.923340,386.385956 1873.146606,374.699554 
	C1894.217529,369.131409 1914.905029,362.100250 1935.726318,355.603912 
	C1951.507324,350.680206 1967.221191,345.541260 1982.978149,340.539612 
	C1984.383789,340.093353 1985.886719,339.953705 1987.529785,339.635864 
	C1988.011597,358.522644 1988.488647,377.218567 1988.916504,396.332336 
z"/>
</svg>